<svg width="430" height="430" viewBox="0 0 430 430" fill="none" xmlns="http://www.w3.org/2000/svg">
<g clip-path="url(#clip0_75_57)">
<path d="M15.1207 225.779C20.8361 222.687 28.15 218.8 35.8969 214.926C65.1046 200.291 75.8098 197.729 79.6003 197.514C85.2887 197.174 90.7707 198.463 95.4649 201.228L97.0893 202.183L126.87 200.271L125.116 238.688L98.1111 239.683L96.4953 240.847C91.9659 244.158 86.5611 246.076 80.8661 246.423C77.0822 246.631 66.2706 245.346 36.4035 234.165C28.4794 231.196 20.9657 228.181 15.1207 225.779Z" fill="#FFCE54"/>
<path d="M133.487 193.53L98.7905 195.749C93.2772 192.5 86.6042 190.782 79.4295 191.202C61.1005 192.273 0.67345 226.617 0.67345 226.617C0.67345 226.617 62.6885 253.801 81.0378 252.735C88.1926 252.31 94.7695 249.818 100.103 245.928L131.137 244.782L133.487 193.53ZM100.05 233.287L96.1202 233.438L92.8967 235.786C89.3767 238.349 85.1542 239.844 80.7028 240.103C79.2364 240.189 70.2959 240.022 38.8206 228.247C35.8213 227.116 32.8876 225.994 30.0858 224.891C32.8283 223.47 35.6882 222.003 38.6143 220.545C69.388 205.123 78.2857 203.906 79.7654 203.833C84.2234 203.566 88.5046 204.57 92.1333 206.714L95.382 208.625L99.1978 208.382L120.247 207.021L119.083 232.581L100.05 233.287Z" fill="#F6BB42"/>
<path d="M122.097 266.971C125.804 268.087 129.582 269.126 133.402 270.091L221.043 279.555C225.073 279.457 229.12 279.286 233.166 279.063C235.509 278.913 237.852 278.763 240.182 278.574C217.391 302.97 181.77 319.838 141.387 322.206C127.934 322.986 114.937 322.111 102.675 319.789C102.59 319.774 102.108 319.677 102.108 319.677C99.4824 319.056 97.5144 316.748 97.44 313.89C97.422 312.939 97.6144 312.028 97.9731 311.206C97.9731 311.206 98.2645 310.566 98.422 310.313L121.131 266.672C121.456 266.779 121.773 266.865 122.097 266.971Z" fill="#5D4D41"/>
<path d="M236.821 148.707C234.483 148.797 232.139 148.922 229.789 149.052C225.75 149.295 221.706 149.597 217.691 149.976C207.318 142.901 130.789 169.639 130.789 169.639C127.036 171.053 123.33 172.525 119.679 174.07C119.361 174.201 119.057 174.343 118.739 174.473L93.8239 133.61C93.6606 133.383 93.33 132.772 93.33 132.772C92.9296 131.994 92.6965 131.115 92.6651 130.152C92.5908 127.294 94.4331 124.777 97.025 123.844C97.025 123.844 97.4864 123.692 97.5778 123.674C109.675 119.92 122.581 117.524 136.04 116.738C176.443 114.375 212.832 127.033 236.821 148.707Z" fill="#5D4D41"/>
<path d="M231.976 144.894C181.353 147.859 134.465 161.296 96.7453 181.392C94.6645 182.551 93.2668 184.772 93.3384 187.283L95.1363 256.861C95.2145 259.364 96.717 261.423 98.8517 262.336C137.508 277.972 184.939 285.894 235.562 282.928C314.209 278.343 383.063 248.876 424.157 207.554C425.384 206.327 426.235 204.512 426.194 202.669C426.139 200.814 425.203 199.11 423.902 198.017C380.786 161.62 310.61 140.296 231.976 144.894Z" fill="#D6DACE"/>
<path d="M355.433 254.057L352.97 159.694C380.793 168.946 404.966 182.035 423.903 198.017C425.203 199.11 426.139 200.814 426.194 202.669C426.236 204.512 425.385 206.327 424.158 207.555C406.103 225.719 382.683 241.578 355.433 254.057Z" fill="#5D4D41"/>
</g>
<path d="M131.341 229.63C128.287 229.63 125.695 229.042 123.566 227.865C121.436 226.688 119.825 225.049 118.732 222.947C117.667 220.818 117.135 218.366 117.135 215.592C117.135 212.79 117.625 210.31 118.606 208.152C119.587 205.967 121.086 204.258 123.103 203.025C125.149 201.792 127.685 201.175 130.711 201.175C132.756 201.175 134.494 201.371 135.923 201.764C137.352 202.156 138.753 202.787 140.126 203.655V208.447H134.62V205.547C134.087 205.322 133.555 205.168 133.023 205.084C132.49 204.972 131.818 204.916 131.005 204.916C128.287 204.916 126.2 205.855 124.743 207.732C123.313 209.61 122.599 212.23 122.599 215.592C122.599 218.87 123.369 221.406 124.911 223.2C126.48 224.993 128.707 225.89 131.594 225.89C132.855 225.89 134.003 225.75 135.04 225.469C136.077 225.189 137.142 224.741 138.235 224.124L140.21 227.235C138.865 228.131 137.52 228.748 136.175 229.084C134.858 229.448 133.247 229.63 131.341 229.63ZM151.985 229.63C148.538 229.63 145.904 228.706 144.083 226.856C142.29 225.007 141.393 222.373 141.393 218.955C141.393 215.508 142.29 212.86 144.083 211.011C145.876 209.133 148.51 208.195 151.985 208.195C155.488 208.195 158.122 209.133 159.887 211.011C161.68 212.86 162.577 215.508 162.577 218.955C162.577 222.373 161.666 225.007 159.845 226.856C158.051 228.706 155.432 229.63 151.985 229.63ZM151.985 225.89C153.75 225.89 155.039 225.329 155.852 224.208C156.692 223.088 157.113 221.336 157.113 218.955C157.113 216.545 156.692 214.779 155.852 213.659C155.039 212.51 153.75 211.935 151.985 211.935C150.22 211.935 148.917 212.51 148.076 213.659C147.263 214.779 146.857 216.545 146.857 218.955C146.857 221.336 147.263 223.088 148.076 224.208C148.917 225.329 150.22 225.89 151.985 225.89ZM164.83 225.343H165.923C166.512 225.343 166.932 225.217 167.184 224.965C167.436 224.685 167.562 224.264 167.562 223.704V214.037C167.562 213.504 167.436 213.112 167.184 212.86C166.96 212.608 166.568 212.482 166.007 212.482H164.83V208.825H171.093L171.345 211.599C172.27 210.45 173.349 209.596 174.582 209.035C175.843 208.475 177.328 208.195 179.037 208.195C181.391 208.195 183.114 208.797 184.207 210.002C185.3 211.179 185.846 212.916 185.846 215.214V223.788C185.846 224.321 185.958 224.713 186.182 224.965C186.435 225.217 186.841 225.343 187.401 225.343H188.494V229H180.34V215.256C180.34 214.023 180.088 213.14 179.583 212.608C179.079 212.047 178.252 211.767 177.104 211.767C175.899 211.767 174.918 212.117 174.161 212.818C173.433 213.49 173.069 214.443 173.069 215.676V223.788C173.069 224.321 173.181 224.713 173.405 224.965C173.657 225.217 174.063 225.343 174.624 225.343H175.717V229H164.83V225.343ZM199.433 229.63C196.855 229.63 194.908 229.042 193.591 227.865C192.302 226.66 191.658 224.923 191.658 222.653V212.482H188.463V208.825H191.658V204.496L197.164 202.857V208.825H202.922V212.482H197.164V223.074C197.164 224.11 197.374 224.867 197.794 225.343C198.242 225.82 198.901 226.058 199.77 226.058C200.834 226.058 201.661 225.806 202.249 225.301V223.494H206.705V227.025C204.967 228.762 202.544 229.63 199.433 229.63ZM209.825 201.343H215.626V205.799H209.825V201.343ZM207.303 225.343H208.396C208.985 225.343 209.405 225.217 209.657 224.965C209.909 224.685 210.035 224.264 210.035 223.704V214.247C210.035 213.631 209.923 213.182 209.699 212.902C209.503 212.622 209.097 212.482 208.48 212.482H207.303V208.825H215.541V223.788C215.541 224.321 215.654 224.713 215.878 224.965C216.13 225.217 216.536 225.343 217.097 225.343H218.189V229H207.303V225.343ZM220.038 225.343H221.13C221.719 225.343 222.139 225.217 222.391 224.965C222.643 224.685 222.77 224.264 222.77 223.704V214.037C222.77 213.504 222.643 213.112 222.391 212.86C222.167 212.608 221.775 212.482 221.214 212.482H220.038V208.825H226.3L226.552 211.599C227.477 210.45 228.556 209.596 229.789 209.035C231.05 208.475 232.535 208.195 234.244 208.195C236.598 208.195 238.321 208.797 239.414 210.002C240.507 211.179 241.053 212.916 241.053 215.214V223.788C241.053 224.321 241.165 224.713 241.389 224.965C241.642 225.217 242.048 225.343 242.608 225.343H243.701V229H235.547V215.256C235.547 214.023 235.295 213.14 234.79 212.608C234.286 212.047 233.46 211.767 232.311 211.767C231.106 211.767 230.125 212.117 229.368 212.818C228.64 213.49 228.276 214.443 228.276 215.676V223.788C228.276 224.321 228.388 224.713 228.612 224.965C228.864 225.217 229.27 225.343 229.831 225.343H230.924V229H220.038V225.343ZM253.916 229.63C251.534 229.63 249.741 229.028 248.536 227.823C247.331 226.618 246.729 224.881 246.729 222.611V214.037C246.729 213.504 246.603 213.112 246.35 212.86C246.126 212.608 245.734 212.482 245.174 212.482H244.081V208.825H252.235V222.569C252.235 223.802 252.501 224.699 253.033 225.259C253.594 225.792 254.448 226.058 255.597 226.058C256.774 226.058 257.713 225.722 258.413 225.049C259.142 224.377 259.506 223.41 259.506 222.149V214.037C259.506 213.504 259.38 213.112 259.128 212.86C258.904 212.608 258.511 212.482 257.951 212.482H256.858V208.825H267.744V212.482H266.651C266.063 212.482 265.643 212.622 265.391 212.902C265.138 213.154 265.012 213.561 265.012 214.121V223.788C265.012 224.321 265.124 224.713 265.349 224.965C265.601 225.217 266.007 225.343 266.567 225.343H267.744V229H261.482L261.229 226.226C260.305 227.431 259.296 228.299 258.203 228.832C257.11 229.364 255.681 229.63 253.916 229.63ZM275.605 229.63C273.28 229.63 271.514 229.14 270.31 228.159C269.133 227.179 268.544 225.778 268.544 223.956C268.544 221.911 269.203 220.398 270.52 219.417C271.865 218.408 273.798 217.834 276.32 217.694L281.49 217.357V214.877C281.49 213.813 281.252 213.056 280.775 212.608C280.299 212.159 279.5 211.935 278.38 211.935C277.091 211.935 275.998 212.187 275.101 212.692V214.331H270.352V210.464C272.789 208.951 275.521 208.195 278.548 208.195C281.49 208.195 283.633 208.839 284.978 210.128C286.351 211.417 287.038 213.182 287.038 215.424V223.788C287.038 224.321 287.136 224.713 287.332 224.965C287.556 225.217 287.907 225.343 288.383 225.343H289.182V229H283.97L283.423 226.478C282.443 227.655 281.378 228.482 280.229 228.958C279.08 229.406 277.539 229.63 275.605 229.63ZM276.866 226.058C278.323 226.058 279.458 225.736 280.271 225.091C281.084 224.447 281.49 223.494 281.49 222.233V220.51L276.824 220.846C275.647 220.93 274.835 221.182 274.387 221.602C273.938 221.995 273.714 222.653 273.714 223.578C273.714 225.231 274.765 226.058 276.866 226.058ZM291.552 201.806H297.478L297.184 220.762H291.846L291.552 201.806ZM291.468 224.587H297.52V229H291.468V224.587Z" fill="black"/>
<path d="M325.18 194.147L320.9 198.523L333.698 211.978L304.9 211.787L304.854 218.016L333.652 218.207L320.657 231.491L324.872 235.923L345.175 215.169L325.18 194.147Z" fill="#6B5A49"/>
<defs>
<clipPath id="clip0_75_57">
<rect width="298.926" height="308.766" fill="white" transform="translate(208.922) rotate(42.5814)"/>
</clipPath>
</defs>
</svg>
