<svg width="430" height="430" viewBox="0 0 430 430" fill="none" xmlns="http://www.w3.org/2000/svg">
<g clip-path="url(#clip0_92_24)">
<path d="M15.1207 225.779C20.8361 222.687 28.15 218.8 35.8969 214.926C65.1046 200.291 75.8098 197.729 79.6003 197.514C85.2887 197.174 90.7707 198.463 95.4649 201.228L97.0893 202.183L126.87 200.271L125.116 238.688L98.1111 239.683L96.4953 240.847C91.9659 244.158 86.5611 246.076 80.8661 246.423C77.0822 246.631 66.2706 245.346 36.4035 234.165C28.4794 231.196 20.9657 228.181 15.1207 225.779Z" fill="#FFCE54"/>
<path d="M133.487 193.53L98.7905 195.749C93.2772 192.5 86.6042 190.782 79.4295 191.202C61.1005 192.273 0.673449 226.617 0.673449 226.617C0.673449 226.617 62.6885 253.801 81.0378 252.735C88.1926 252.31 94.7695 249.818 100.103 245.928L131.137 244.782L133.487 193.53ZM100.05 233.287L96.1202 233.438L92.8967 235.786C89.3767 238.349 85.1542 239.844 80.7028 240.103C79.2364 240.189 70.2959 240.022 38.8206 228.247C35.8213 227.116 32.8876 225.994 30.0858 224.891C32.8283 223.47 35.6882 222.003 38.6143 220.545C69.388 205.123 78.2857 203.906 79.7654 203.833C84.2234 203.566 88.5046 204.57 92.1333 206.714L95.382 208.625L99.1978 208.382L120.247 207.021L119.083 232.581L100.05 233.287Z" fill="#F6BB42"/>
<path d="M122.097 266.971C125.804 268.087 129.582 269.126 133.402 270.091L221.043 279.555C225.073 279.457 229.12 279.286 233.166 279.063C235.509 278.913 237.852 278.763 240.182 278.574C217.391 302.97 181.77 319.838 141.387 322.206C127.934 322.986 114.937 322.111 102.675 319.789C102.59 319.774 102.108 319.677 102.108 319.677C99.4824 319.056 97.5144 316.748 97.44 313.89C97.422 312.939 97.6144 312.028 97.9731 311.206C97.9731 311.206 98.2645 310.566 98.422 310.313L121.131 266.672C121.456 266.779 121.773 266.865 122.097 266.971Z" fill="#5D4D41"/>
<path d="M236.821 148.707C234.483 148.797 232.139 148.922 229.789 149.052C225.75 149.295 221.706 149.597 217.691 149.976C207.318 142.901 130.789 169.639 130.789 169.639C127.036 171.053 123.33 172.525 119.679 174.07C119.361 174.201 119.057 174.343 118.739 174.473L93.8239 133.61C93.6606 133.383 93.33 132.772 93.33 132.772C92.9296 131.994 92.6965 131.115 92.6651 130.152C92.5908 127.294 94.4331 124.777 97.025 123.844C97.025 123.844 97.4864 123.692 97.5778 123.674C109.675 119.92 122.581 117.524 136.04 116.738C176.443 114.375 212.832 127.033 236.821 148.707Z" fill="#5D4D41"/>
<path d="M231.976 144.894C181.353 147.859 134.465 161.296 96.7453 181.392C94.6645 182.551 93.2668 184.772 93.3384 187.283L95.1363 256.861C95.2145 259.364 96.717 261.423 98.8517 262.336C137.508 277.972 184.939 285.894 235.562 282.928C314.209 278.343 383.063 248.876 424.157 207.554C425.384 206.327 426.235 204.512 426.194 202.669C426.139 200.814 425.203 199.11 423.902 198.017C380.786 161.62 310.61 140.296 231.976 144.894Z" fill="#D6DACE"/>
<path d="M355.433 254.057L352.97 159.694C380.793 168.946 404.966 182.035 423.903 198.017C425.203 199.11 426.139 200.814 426.194 202.669C426.236 204.512 425.385 206.327 424.158 207.555C406.103 225.719 382.683 241.578 355.433 254.057Z" fill="#5D4D41"/>
</g>
<defs>
<clipPath id="clip0_92_24">
<rect width="298.926" height="308.766" fill="white" transform="translate(208.922) rotate(42.5814)"/>
</clipPath>
</defs>
</svg>
