<svg width="507" height="507" viewBox="0 0 507 507" fill="none" xmlns="http://www.w3.org/2000/svg">
<g clip-path="url(#clip0_97_31)">
<path d="M17.8441 266.448C24.589 262.799 33.2203 258.212 42.3627 253.641C76.8315 236.369 89.465 233.346 93.9383 233.092C100.651 232.691 107.121 234.212 112.661 237.475L114.578 238.602L149.723 236.346L147.653 281.682L115.783 282.857L113.877 284.231C108.531 288.139 102.153 290.402 95.4322 290.811C90.9666 291.056 78.2075 289.54 42.9606 276.346C33.609 272.841 24.7419 269.283 17.8441 266.448Z" fill="#FFCE54"/>
<path d="M157.533 228.39L116.586 231.009C110.079 227.174 102.204 225.147 93.7372 225.643C72.1066 226.907 0.794819 267.437 0.794819 267.437C0.794819 267.437 73.9807 299.519 95.6352 298.26C104.079 297.758 111.84 294.818 118.134 290.227L154.758 288.875L157.533 228.39ZM118.072 275.308L113.434 275.487L109.63 278.258C105.476 281.283 100.493 283.047 95.2398 283.353C93.5093 283.454 82.9584 283.258 45.8134 269.361C42.2738 268.026 38.8118 266.702 35.5052 265.401C38.7417 263.724 42.1168 261.993 45.5699 260.272C81.8869 242.072 92.3874 240.636 94.1336 240.549C99.3946 240.234 104.447 241.419 108.729 243.95L112.563 246.205L117.066 245.918L141.907 244.311L140.533 274.476L118.072 275.308Z" fill="#F6BB42"/>
<path d="M144.09 315.061C148.465 316.378 152.924 317.604 157.433 318.743L260.86 329.912C265.616 329.796 270.392 329.594 275.166 329.331C277.931 329.154 280.697 328.977 283.446 328.754C256.551 357.544 214.513 377.45 166.855 380.245C150.98 381.166 135.641 380.133 121.171 377.392C121.07 377.375 120.501 377.26 120.501 377.26C117.403 376.527 115.08 373.804 114.992 370.431C114.971 369.309 115.198 368.234 115.622 367.264C115.622 367.264 115.965 366.508 116.151 366.21L142.951 314.708C143.334 314.834 143.708 314.936 144.09 315.061Z" fill="#3F3D56"/>
<path d="M279.48 175.493C276.721 175.6 273.955 175.747 271.181 175.901C266.415 176.187 261.643 176.543 256.904 176.991C244.663 168.642 154.348 200.196 154.348 200.196C149.919 201.865 145.546 203.601 141.237 205.426C140.862 205.58 140.503 205.747 140.128 205.901L110.725 157.677C110.532 157.409 110.142 156.688 110.142 156.688C109.669 155.771 109.394 154.733 109.357 153.596C109.269 150.223 111.444 147.253 114.502 146.152C114.502 146.152 115.047 145.973 115.155 145.951C129.431 141.521 144.661 138.694 160.545 137.766C208.226 134.978 251.169 149.915 279.48 175.493Z" fill="#3F3D56"/>
<path d="M273.761 170.993C214.02 174.493 158.687 190.35 114.172 214.066C111.716 215.434 110.067 218.055 110.151 221.018L112.273 303.129C112.365 306.084 114.138 308.513 116.658 309.59C162.277 328.043 218.252 337.392 277.993 333.892C370.807 328.48 452.064 293.706 500.561 244.941C502.008 243.493 503.013 241.35 502.964 239.176C502.899 236.987 501.794 234.975 500.26 233.686C449.377 190.733 366.56 165.567 273.761 170.993Z" fill="#7D52EB"/>
<path d="M419.457 299.82L416.551 188.46C449.385 199.378 477.913 214.825 500.261 233.686C501.795 234.975 502.9 236.987 502.965 239.176C503.014 241.35 502.009 243.493 500.561 244.941C479.254 266.378 451.616 285.094 419.457 299.82Z" fill="#3F3D56"/>
</g>
<defs>
<clipPath id="clip0_97_31">
<rect width="352.772" height="364.384" fill="white" transform="translate(246.555) rotate(42.5814)"/>
</clipPath>
</defs>
</svg>
